<svg version="1.1" id="Layer_1" xmlns:x="ns_extend;" xmlns:i="ns_ai;" xmlns:graph="ns_graphs;" xmlns="http://www.w3.org/2000/svg" xmlns:xlink="http://www.w3.org/1999/xlink" x="0px" y="0px" viewBox="0 0 43 42" style="enable-background:new 0 0 43 42;" xml:space="preserve">
 <style type="text/css">
  .st0{fill:#036C70;}
	.st1{fill:#1A9BA1;}
	.st2{fill:#37C6D0;}
	.st3{opacity:0.1;enable-background:new    ;}
	.st4{opacity:0.2;enable-background:new    ;}
	.st5{fill:url(#SVGID_1_);}
	.st6{fill:#FFFFFF;}
 </style>
 <metadata>
  <sfw xmlns="ns_sfw;">
   <slices>
   </slices>
   <sliceSourceBounds bottomLeftOrigin="true" height="42" width="43" x="2" y="3">
   </sliceSourceBounds>
  </sfw>
 </metadata>
 <g>
  <circle class="st0" cx="22" cy="12" r="12">
  </circle>
  <circle class="st1" cx="32" cy="23" r="11">
  </circle>
  <circle class="st2" cx="23.5" cy="33.5" r="8.5">
  </circle>
  <path class="st3" d="M24,10.8v21.3c0,0.7-0.5,1.4-1.1,1.7C22.6,34,22.4,34,22.2,34H15c0-0.2,0-0.3,0-0.5c0-0.2,0-0.3,0-0.5
		c0.2-3.2,2.2-6,5.1-7.3v-1.9c-6.5-1-11-7.2-10-13.7c0,0,0-0.1,0-0.1c0-0.3,0.1-0.7,0.2-1h11.8C23.2,9,24,9.8,24,10.8z">
  </path>
  <path class="st4" d="M21.2,10h-11c-1.1,6.5,3.3,12.7,9.8,13.8c0.2,0,0.4,0.1,0.6,0.1c-3.1,1.5-5.4,5.6-5.6,9.1c0,0.2,0,0.3,0,0.5
		c0,0.2,0,0.3,0,0.5c0,0.3,0.1,0.7,0.1,1h6c0.7,0,1.4-0.5,1.7-1.1c0.1-0.2,0.1-0.5,0.1-0.7V11.8C23,10.8,22.2,10,21.2,10z">
  </path>
  <path class="st4" d="M21.2,10h-11c-1.1,6.5,3.3,12.7,9.8,13.8c0.1,0,0.3,0,0.4,0.1c-3,1.6-5.2,5.7-5.4,9.1h6.1c1,0,1.8-0.8,1.8-1.8
		V11.8C23,10.8,22.2,10,21.2,10z">
  </path>
  <path class="st4" d="M20.2,10h-10c-1,6.2,2.8,12.1,8.9,13.6c-2.3,2.6-3.7,5.9-4,9.4h5.1c1,0,1.8-0.8,1.8-1.8V11.8
		C22,10.8,21.2,10,20.2,10z">
  </path>
  <linearGradient id="SVGID_1_" gradientUnits="userSpaceOnUse" x1="3.8218" y1="35.4323" x2="18.1782" y2="10.5677" gradientTransform="matrix(1 0 0 -1 0 44)">
   <stop offset="0" style="stop-color:#058F92">
   </stop>
   <stop offset="0.5" style="stop-color:#038489">
   </stop>
   <stop offset="1" style="stop-color:#026D71">
   </stop>
  </linearGradient>
  <path class="st5" d="M1.8,10h18.3c1,0,1.8,0.8,1.8,1.8v18.3c0,1-0.8,1.8-1.8,1.8H1.8c-1,0-1.8-0.8-1.8-1.8V11.8
		C0,10.8,0.8,10,1.8,10z">
  </path>
  <path class="st6" d="M8.2,20.8c-0.4-0.3-0.8-0.7-1-1.1c-0.3-0.5-0.4-1-0.4-1.5c0-0.7,0.2-1.4,0.7-2c0.5-0.6,1.1-1,1.8-1.2
		c0.8-0.3,1.6-0.4,2.5-0.4c1.1,0,2.2,0.1,3.2,0.5v2.3c-0.5-0.3-1-0.5-1.5-0.6c-0.6-0.1-1.1-0.2-1.7-0.2c-0.6,0-1.2,0.1-1.8,0.4
		c-0.4,0.2-0.7,0.6-0.7,1.1c0,0.3,0.1,0.5,0.3,0.8c0.2,0.2,0.5,0.4,0.8,0.6c0.3,0.2,0.8,0.4,1.5,0.7c0.1,0,0.1,0.1,0.2,0.1
		c0.7,0.3,1.3,0.6,1.9,0.9c0.5,0.3,0.8,0.7,1.1,1.1c0.3,0.5,0.4,1.1,0.4,1.7c0,0.7-0.2,1.5-0.6,2c-0.4,0.5-1,0.9-1.7,1.1
		c-0.8,0.2-1.6,0.4-2.4,0.4c-0.7,0-1.5-0.1-2.2-0.2c-0.6-0.1-1.2-0.3-1.8-0.5v-2.4c0.5,0.4,1.2,0.7,1.8,0.9c0.6,0.2,1.3,0.3,2,0.3
		c0.6,0,1.2-0.1,1.8-0.4c0.4-0.2,0.6-0.6,0.6-1.1c0-0.3-0.1-0.6-0.3-0.8c-0.3-0.3-0.6-0.5-0.9-0.7c-0.4-0.2-1-0.5-1.8-0.8
		C9.3,21.5,8.7,21.1,8.2,20.8z">
  </path>
 </g>
</svg>