<svg version="1.1" id="Layer_1" xmlns:x="ns_extend;" xmlns:i="ns_ai;" xmlns:graph="ns_graphs;" xmlns="http://www.w3.org/2000/svg" xmlns:xlink="http://www.w3.org/1999/xlink" x="0px" y="0px" viewBox="0 0 43 40" style="enable-background:new 0 0 43 40;" xml:space="preserve">
 <style type="text/css">
  .st0{fill:#41A5EE;}
	.st1{fill:#2B7CD3;}
	.st2{fill:#185ABD;}
	.st3{fill:#103F91;}
	.st4{opacity:0.1;enable-background:new    ;}
	.st5{opacity:0.2;enable-background:new    ;}
	.st6{fill:url(#SVGID_1_);}
	.st7{fill:#FFFFFF;}
 </style>
 <metadata>
  <sfw xmlns="ns_sfw;">
   <slices>
   </slices>
   <sliceSourceBounds bottomLeftOrigin="true" height="40" width="43" x="2.2" y="4">
   </sliceSourceBounds>
  </sfw>
 </metadata>
 <g>
  <path class="st0" d="M41.2,0H11.8c-1,0-1.8,0.8-1.8,1.8c0,0,0,0,0,0V10l17,5l16-5V1.8C43,0.8,42.2,0,41.2,0L41.2,0z">
  </path>
  <path class="st1" d="M43,10H10v10l17,3l16-3V10z">
  </path>
  <path class="st2" d="M10,20v10l16,2l17-2V20H10z">
  </path>
  <path class="st3" d="M11.8,40h29.3c1,0,1.8-0.8,1.8-1.8l0,0V30H10v8.2C10,39.2,10.8,40,11.8,40L11.8,40z">
  </path>
  <path class="st4" d="M22.2,8H10v25h12.2c1,0,1.8-0.8,1.8-1.8V9.8C24,8.8,23.2,8,22.2,8z">
  </path>
  <path class="st5" d="M21.2,9H10v25h11.2c1,0,1.8-0.8,1.8-1.8V10.8C23,9.8,22.2,9,21.2,9z">
  </path>
  <path class="st5" d="M21.2,9H10v23h11.2c1,0,1.8-0.8,1.8-1.8V10.8C23,9.8,22.2,9,21.2,9z">
  </path>
  <path class="st5" d="M20.2,9H10v23h10.2c1,0,1.8-0.8,1.8-1.8V10.8C22,9.8,21.2,9,20.2,9z">
  </path>
  <linearGradient id="SVGID_1_" gradientUnits="userSpaceOnUse" x1="3.8218" y1="34.4323" x2="18.1782" y2="9.5677" gradientTransform="matrix(1 0 0 -1 0 42)">
   <stop offset="0" style="stop-color:#2368C4">
   </stop>
   <stop offset="0.5" style="stop-color:#1A5DBE">
   </stop>
   <stop offset="1" style="stop-color:#1146AC">
   </stop>
  </linearGradient>
  <path class="st6" d="M1.8,9h18.3c1,0,1.8,0.8,1.8,1.8v18.3c0,1-0.8,1.8-1.8,1.8H1.8c-1,0-1.8-0.8-1.8-1.8V10.8C0,9.8,0.8,9,1.8,9z">
  </path>
  <path class="st7" d="M7.5,23.1c0,0.3,0.1,0.5,0.1,0.7h0c0-0.2,0-0.4,0.1-0.7c0.1-0.3,0.1-0.5,0.1-0.7L9.8,14h2.5l2,8.2
		c0.1,0.5,0.2,1,0.2,1.5h0c0-0.5,0.1-1,0.2-1.5l1.6-8.2h2.3L15.8,26h-2.7l-1.9-7.9c-0.1-0.2-0.1-0.5-0.2-0.9S11,16.5,11,16.4h0
		c0,0.2-0.1,0.5-0.1,0.9s-0.1,0.7-0.2,0.8L8.9,26H6.2L3.4,14h2.3l1.7,8.3C7.4,22.5,7.5,22.8,7.5,23.1z">
  </path>
 </g>
</svg>